<?xml version="1.0" encoding="UTF-8"?>
<!-- Generator: visioncortex VTracer 0.6.3 -->
<svg version="1.1" xmlns="http://www.w3.org/2000/svg" width="1280" height="1280">
<path d="M0 0 C4.95 0.08 9.43 1.59 14.13 3.05 C16.27 3.7 18.42 4.34 20.57 4.99 C21.75 5.35 22.94 5.7 24.16 6.07 C28.43 7.35 32.72 8.58 37 9.8 C64.09 17.53 90.87 25.91 117.43 35.31 C120.08 36.24 122.74 37.16 125.4 38.08 C133.94 41.02 142.4 44.09 150.77 47.51 C156.46 49.82 162.21 51.98 167.94 54.18 C177.33 57.77 186.68 61.46 195.95 65.35 C197.56 66.02 199.17 66.69 200.78 67.36 C216.46 73.86 232.07 80.54 247.18 88.28 C251.6 90.53 256.08 92.63 260.57 94.74 C272.82 100.51 284.89 106.57 296.84 112.95 C301.35 115.35 305.91 117.67 310.5 119.93 C315.31 122.3 319.88 124.87 324.43 127.69 C327.12 129.27 329.85 130.65 332.65 132.01 C338.78 135.05 344.68 138.39 350.57 141.86 C351.6 142.47 352.64 143.08 353.7 143.7 C376.36 157.03 399.02 170.45 420.86 185.09 C423.07 186.57 425.28 188.04 427.49 189.51 C436.97 195.8 446.37 202.21 455.75 208.65 C457.93 210.15 460.12 211.64 462.3 213.12 C469.77 218.21 477.13 223.41 484.37 228.8 C487.59 231.22 487.59 231.22 491.07 233.24 C491.07 233.9 491.07 234.56 491.07 235.24 C492.06 235.55 492.06 235.55 493.08 235.87 C497.15 237.73 500.38 240.35 503.88 243.11 C505.4 244.3 506.93 245.48 508.45 246.66 C509.22 247.26 509.99 247.86 510.78 248.47 C514.24 251.15 517.75 253.75 521.25 256.36 C532 264.39 542.51 272.67 552.74 281.34 C554.91 283.25 554.91 283.25 557.07 284.24 C557.07 284.9 557.07 285.56 557.07 286.24 C557.61 286.48 558.15 286.73 558.71 286.98 C561.62 288.53 564.16 290.41 566.82 292.36 C567.8 293.09 568.79 293.81 569.8 294.56 C570.55 295.11 571.3 295.67 572.07 296.24 C576.71 294.24 580.46 290.91 584.38 287.78 C586.93 285.77 588.95 284.28 592.07 283.24 C592.07 282.58 592.07 281.92 592.07 281.24 C593.76 279.84 595.52 278.51 597.32 277.24 C598.29 276.54 599.27 275.84 600.27 275.11 C602.5 273.62 604.63 272.35 607.07 271.24 C607.07 270.58 607.07 269.92 607.07 269.24 C608.44 268.19 608.44 268.19 610.5 266.93 C615.35 263.81 619.89 260.38 624.44 256.86 C630.91 251.88 637.42 246.99 644.07 242.24 C645.12 241.48 646.17 240.73 647.25 239.95 C650.85 237.37 654.46 234.8 658.07 232.24 C658.72 231.77 659.37 231.31 660.04 230.83 C676.19 219.35 692.53 208.15 709.07 197.24 C709.91 196.68 710.76 196.12 711.63 195.54 C728.44 184.43 745.51 173.9 763.04 163.96 C768.53 160.84 773.93 157.57 779.29 154.23 C784.47 151 789.61 147.85 795.12 145.22 C797.45 144.05 799.65 142.72 801.88 141.36 C810.28 136.27 818.94 131.77 827.74 127.41 C832.71 124.94 837.61 122.36 842.5 119.74 C848.84 116.35 855.26 113.2 861.78 110.18 C866.44 108.02 871.05 105.76 875.63 103.43 C883.43 99.47 891.38 95.86 899.34 92.25 C904.83 89.75 910.26 87.18 915.63 84.43 C920.84 81.77 926.11 79.54 931.56 77.43 C935.43 75.92 939.19 74.28 942.94 72.49 C952.72 67.92 962.79 64.07 972.83 60.12 C975.3 59.14 977.78 58.17 980.26 57.19 C1002.03 48.57 1023.8 40.04 1045.92 32.34 C1049.27 31.17 1052.6 29.96 1055.93 28.75 C1057.05 28.34 1058.18 27.93 1059.34 27.5 C1061.44 26.73 1063.54 25.96 1065.64 25.19 C1070.28 23.51 1074.88 21.98 1079.66 20.73 C1084.12 19.56 1088.27 18.01 1092.53 16.24 C1097 14.48 1101.59 13.16 1106.19 11.8 C1108.22 11.19 1110.24 10.59 1112.27 9.98 C1113.74 9.54 1113.74 9.54 1115.25 9.09 C1120.38 7.54 1125.49 5.91 1130.59 4.28 C1136.85 2.4 1142.51 0.96 1149.07 1.24 C1146.12 4.52 1143.42 6.23 1139.39 7.98 C1138.24 8.48 1137.1 8.98 1135.93 9.5 C1135.01 9.89 1135.01 9.89 1134.08 10.3 C1130.82 11.71 1127.57 13.15 1124.31 14.59 C1123.64 14.88 1122.96 15.18 1122.26 15.49 C1114.88 18.74 1107.56 22.13 1100.25 25.55 C1099.62 25.85 1098.98 26.15 1098.33 26.45 C1090.64 30.05 1082.98 33.7 1075.42 37.55 C1070.91 39.84 1066.34 41.99 1061.75 44.11 C1049.1 50 1036.75 56.53 1024.75 63.66 C1022.05 65.25 1019.32 66.75 1016.57 68.24 C1011.65 70.89 1006.84 73.69 1002.03 76.53 C999.28 78.12 996.5 79.62 993.69 81.11 C988.19 84.08 983.02 87.44 977.82 90.89 C974.9 92.77 971.91 94.43 968.86 96.07 C962.89 99.28 957.17 102.81 951.44 106.43 C950.4 107.08 949.35 107.74 948.27 108.42 C940.17 113.51 932.12 118.68 924.11 123.91 C921.94 125.32 919.77 126.72 917.6 128.11 C910.96 132.38 904.35 136.66 897.92 141.23 C893.83 144.11 889.7 146.92 885.57 149.74 C879.83 153.66 874.1 157.58 868.42 161.58 C866.88 162.66 865.34 163.74 863.8 164.81 C857.77 169 851.86 173.32 846 177.74 C845.17 178.36 844.34 178.99 843.48 179.63 C839.43 182.67 835.41 185.74 831.43 188.85 C828.09 191.46 824.71 194 821.3 196.51 C814 201.9 807.05 207.57 800.21 213.53 C789.62 222.72 789.62 222.72 785.07 224.24 C785.07 224.9 785.07 225.56 785.07 226.24 C783.41 227.73 783.41 227.73 781 229.55 C776.36 233.17 771.88 236.93 767.44 240.8 C766.8 241.36 766.15 241.93 765.48 242.51 C764.24 243.59 762.99 244.68 761.74 245.77 C760.31 247.03 758.87 248.28 757.43 249.52 C753.85 252.6 753.85 252.6 750.49 255.92 C749.07 257.24 749.07 257.24 747.07 257.24 C747.07 257.9 747.07 258.56 747.07 259.24 C745.53 260.59 743.93 261.87 742.32 263.11 C737.14 267.23 732.51 271.65 727.95 276.43 C726.69 277.73 725.38 278.99 724.07 280.24 C723.41 280.24 722.75 280.24 722.07 280.24 C721.74 281.23 721.41 282.22 721.07 283.24 C720.41 283.24 719.75 283.24 719.07 283.24 C719.07 283.9 719.07 284.56 719.07 285.24 C717.77 286.51 717.77 286.51 715.88 288.06 C710.23 292.86 705.06 298.1 699.84 303.34 C698.11 305.07 696.38 306.79 694.65 308.52 C693.55 309.62 692.45 310.72 691.35 311.82 C690.58 312.59 690.58 312.59 689.79 313.38 C687.09 316.06 687.09 316.06 685.07 319.24 C684.41 319.24 683.75 319.24 683.07 319.24 C683.07 319.9 683.07 320.56 683.07 321.24 C682.41 321.24 681.75 321.24 681.07 321.24 C680.74 322.23 680.41 323.22 680.07 324.24 C679.41 324.24 678.75 324.24 678.07 324.24 C677.84 324.79 677.62 325.35 677.39 325.92 C675.67 328.94 673.46 330.96 670.94 333.36 C666.4 337.76 662.42 342.36 658.62 347.44 C658.11 348.03 657.6 348.63 657.07 349.24 C656.41 349.24 655.75 349.24 655.07 349.24 C654.74 350.23 654.41 351.22 654.07 352.24 C653.41 352.24 652.75 352.24 652.07 352.24 C651.82 352.8 651.58 353.36 651.33 353.95 C649.83 356.67 648 358.65 645.88 360.93 C642.14 364.99 638.74 369.17 635.48 373.62 C635.01 374.15 634.55 374.69 634.07 375.24 C633.41 375.24 632.75 375.24 632.07 375.24 C631.69 376.08 631.69 376.08 631.31 376.93 C629.85 379.64 628.1 381.81 626.13 384.18 C625.33 385.14 624.53 386.11 623.7 387.11 C621.91 389.25 620.1 391.38 618.27 393.5 C617.33 394.6 616.39 395.7 615.44 396.8 C614.98 397.34 614.51 397.88 614.03 398.44 C610.51 402.6 607.38 406.94 604.41 411.51 C603.74 412.36 603.74 412.36 603.07 413.24 C602.41 413.24 601.75 413.24 601.07 413.24 C600.8 413.82 600.53 414.4 600.25 414.99 C599.04 417.29 597.68 419.15 596.07 421.18 C593.9 423.91 591.74 426.65 589.63 429.43 C576.44 446.78 576.44 446.78 572.07 448.24 C568.88 445.93 568.88 445.93 566.07 443.24 C566.07 442.58 566.07 441.92 566.07 441.24 C565.41 441.24 564.75 441.24 564.07 441.24 C562.56 439.56 562.56 439.56 560.94 437.36 C560.4 436.64 559.86 435.92 559.31 435.18 C558.07 433.24 558.07 433.24 558.07 431.24 C557.41 431.24 556.75 431.24 556.07 431.24 C554.91 429.91 554.91 429.91 553.57 427.99 C550.53 423.8 547.28 419.83 543.95 415.87 C543.52 415.36 543.08 414.84 542.64 414.31 C542.21 413.79 541.77 413.28 541.33 412.75 C538.67 409.57 536.07 406.34 533.45 403.12 C531.67 400.97 529.88 398.84 528.06 396.73 C527.55 396.14 527.04 395.55 526.52 394.94 C525.53 393.78 524.52 392.63 523.52 391.48 C520.07 387.46 520.07 387.46 520.07 385.24 C519.41 385.24 518.75 385.24 518.07 385.24 C516.65 383.67 515.31 382.03 514 380.36 C510.21 375.62 506.27 371.06 502.18 366.57 C499.72 363.85 497.31 361.09 494.91 358.32 C493.5 356.73 492.07 355.16 490.63 353.59 C489.81 352.69 488.98 351.79 488.13 350.86 C487.36 350.03 486.58 349.2 485.79 348.34 C484.07 346.24 484.07 346.24 484.07 344.24 C483.41 344.24 482.75 344.24 482.07 344.24 C480.59 342.76 480.59 342.76 478.89 340.73 C475.31 336.52 471.61 332.45 467.82 328.43 C467.15 327.71 466.47 327 465.78 326.26 C459.35 319.45 452.72 312.85 446.01 306.31 C445.24 305.54 444.46 304.78 443.66 303.99 C442.62 302.98 442.62 302.98 441.56 301.94 C440.07 300.24 440.07 300.24 440.07 298.24 C439.41 298.24 438.75 298.24 438.07 298.24 C438.07 297.58 438.07 296.92 438.07 296.24 C437.08 295.91 436.09 295.58 435.07 295.24 C435.07 294.58 435.07 293.92 435.07 293.24 C434.41 293.24 433.75 293.24 433.07 293.24 C431.44 291.86 431.44 291.86 430.07 290.24 C430.07 289.58 430.07 288.92 430.07 288.24 C429.41 288.24 428.75 288.24 428.07 288.24 C428.07 287.58 428.07 286.92 428.07 286.24 C427.08 285.91 426.09 285.58 425.07 285.24 C425.07 284.58 425.07 283.92 425.07 283.24 C424.49 282.99 423.91 282.74 423.32 282.48 C420.75 281.06 419.07 279.45 417.02 277.35 C416.26 276.58 415.49 275.8 414.71 275.01 C413.92 274.2 413.13 273.39 412.32 272.55 C402.81 262.68 402.81 262.68 392.07 254.24 C392.07 253.58 392.07 252.92 392.07 252.24 C391.5 252 390.94 251.77 390.36 251.53 C387.51 249.92 385.64 247.92 383.38 245.55 C379.59 241.68 375.75 238.32 371.42 235.09 C367.64 232.12 364.19 228.8 360.66 225.54 C358.47 223.6 356.29 221.89 353.88 220.24 C352.95 219.58 352.02 218.92 351.07 218.24 C351.07 217.58 351.07 216.92 351.07 216.24 C350.54 216.02 350.01 215.8 349.46 215.58 C346.17 213.74 343.5 211.28 340.69 208.8 C333.67 202.69 326.43 196.93 319.07 191.24 C317.63 190.11 316.19 188.99 314.75 187.86 C313.19 186.65 311.63 185.44 310.07 184.24 C309.43 183.75 308.79 183.25 308.13 182.74 C305.88 181.01 303.63 179.28 301.38 177.55 C300.65 176.99 299.93 176.43 299.18 175.86 C296.03 173.44 292.9 171.09 289.55 168.97 C288.73 168.4 287.91 167.83 287.07 167.24 C287.07 166.58 287.07 165.92 287.07 165.24 C286.36 165 285.65 164.76 284.92 164.51 C281.63 163.04 279.25 161.19 276.44 158.93 C267.19 151.61 257.41 144.95 247.49 138.58 C246.66 138.05 245.84 137.52 244.99 136.97 C244.24 136.5 243.48 136.02 242.71 135.53 C242.17 135.1 241.63 134.68 241.07 134.24 C241.07 133.58 241.07 132.92 241.07 132.24 C240.33 131.97 239.6 131.69 238.85 131.41 C236.2 130.29 233.98 129.05 231.57 127.49 C230.6 126.86 229.64 126.24 228.64 125.6 C225.92 123.81 223.22 122 220.52 120.19 C208.06 111.82 195.45 103.75 182.69 95.86 C180.38 94.43 178.07 92.99 175.77 91.55 C174.6 90.82 173.42 90.09 172.25 89.36 C171.3 88.77 170.34 88.17 169.36 87.56 C167.03 86.11 167.03 86.11 164.07 85.24 C164.07 84.58 164.07 83.92 164.07 83.24 C163.28 83.1 163.28 83.1 162.47 82.97 C159.22 81.98 156.47 80.28 153.57 78.55 C149.01 75.89 144.44 73.37 139.69 71.05 C136.36 69.42 133.18 67.75 130.07 65.74 C126.04 63.14 121.81 61.07 117.51 58.96 C114.35 57.38 111.24 55.74 108.12 54.06 C98.27 48.77 88.21 43.95 78.07 39.24 C76.75 38.63 75.44 38.01 74.13 37.4 C71.69 36.26 69.25 35.12 66.81 33.98 C63.45 32.42 60.09 30.84 56.73 29.26 C54.58 28.24 52.41 27.23 50.25 26.21 C47.58 24.96 44.92 23.69 42.25 22.42 C31.79 17.45 21.15 12.83 10.28 8.83 C9.14 8.41 7.99 7.99 6.82 7.55 C5.82 7.2 4.83 6.84 3.8 6.48 C0.79 5.11 -1.44 3.4 -3.93 1.24 C-2.93 0.24 -2.93 0.24 0 0 Z " fill="#020202" transform="translate(67.93359375,416.76171875)"/>
<path d="M0 0 C0 0.99 0 1.98 0 3 C-12.8 12.14 -27.99 18.59 -42.07 25.51 C-55.71 32.21 -69.21 39.03 -82.37 46.65 C-87.34 49.53 -92.36 52.2 -97.51 54.74 C-101.78 56.9 -105.92 59.3 -110.06 61.69 C-110.98 62.21 -111.89 62.74 -112.83 63.28 C-115.56 64.85 -118.28 66.42 -121 68 C-121.74 68.43 -122.48 68.86 -123.25 69.3 C-132.23 74.51 -141.12 79.86 -150 85.25 C-150.96 85.83 -151.91 86.41 -152.9 87 C-158 90.11 -163 93.32 -167.95 96.66 C-170.31 98.21 -172.73 99.59 -175.19 100.97 C-178.89 103.08 -182.47 105.4 -186.06 107.69 C-187.31 108.48 -187.31 108.48 -188.59 109.29 C-194.64 113.12 -200.67 116.98 -206.68 120.86 C-208.93 122.31 -211.19 123.76 -213.45 125.2 C-221.4 130.29 -229.28 135.49 -237.13 140.75 C-238.94 141.96 -240.76 143.16 -242.58 144.36 C-251.51 150.26 -260.28 156.37 -269.03 162.52 C-273.65 165.76 -278.29 168.98 -282.94 172.19 C-283.58 172.63 -284.23 173.08 -284.89 173.54 C-286.58 174.7 -288.29 175.85 -290 177 C-290.87 177.59 -291.74 178.19 -292.63 178.8 C-295.47 180.24 -296.85 180.57 -300 180 C-302.17 178.61 -304.03 177.26 -306 175.62 C-307.16 174.7 -308.32 173.77 -309.48 172.84 C-310.07 172.37 -310.65 171.89 -311.26 171.4 C-313.91 169.27 -316.61 167.2 -319.31 165.12 C-320.1 164.52 -320.1 164.52 -320.91 163.9 C-331.12 156.05 -341.39 148.31 -352 141 C-353.5 139.94 -355 138.88 -356.5 137.81 C-363.45 132.95 -370.53 128.29 -377.6 123.6 C-379.97 122.02 -382.34 120.43 -384.71 118.84 C-393.36 113.03 -402.08 107.4 -411 102 C-412.96 100.79 -414.92 99.58 -416.88 98.38 C-432.5 88.77 -448.14 79.2 -464 70 C-464.84 69.51 -465.68 69.03 -466.54 68.52 C-476.13 62.95 -485.71 57.5 -495.68 52.64 C-499.33 50.84 -502.92 48.93 -506.5 47 C-512.43 43.81 -518.41 40.75 -524.45 37.76 C-527.44 36.28 -530.42 34.78 -533.4 33.27 C-540.91 29.49 -548.48 25.83 -556.06 22.19 C-557.12 21.68 -558.17 21.17 -559.26 20.65 C-564.69 18.04 -570.14 15.46 -575.61 12.93 C-577.19 12.19 -577.19 12.19 -578.8 11.43 C-580.81 10.5 -582.82 9.57 -584.83 8.65 C-586.18 8.02 -586.18 8.02 -587.55 7.38 C-588.34 7.01 -589.13 6.65 -589.94 6.27 C-592.28 4.83 -593.5 3.28 -595 1 C-593.02 1.09 -591.04 1.2 -589.06 1.31 C-587.96 1.37 -586.86 1.43 -585.72 1.49 C-582.12 1.98 -579.17 2.87 -575.76 4.07 C-572.37 5.21 -568.93 6.19 -565.48 7.16 C-564.79 7.36 -564.1 7.55 -563.39 7.75 C-561.94 8.16 -560.48 8.57 -559.02 8.98 C-532.11 16.57 -505.54 25.06 -479.04 33.97 C-475.11 35.29 -471.18 36.6 -467.24 37.9 C-450.73 43.32 -434.37 49.16 -418 55 C-416.53 55.52 -416.53 55.52 -415.04 56.05 C-407.5 58.76 -400.06 61.71 -392.62 64.69 C-391.65 65.08 -391.65 65.08 -390.65 65.48 C-380.54 69.53 -370.5 73.71 -360.52 78.06 C-357.47 79.39 -354.4 80.64 -351.31 81.86 C-345.36 84.22 -339.54 86.83 -333.71 89.46 C-331.78 90.33 -329.85 91.19 -327.92 92.06 C-322.6 94.45 -317.28 96.84 -312.02 99.37 C-311.34 99.7 -310.66 100.02 -309.96 100.36 C-308.28 101.17 -306.61 102 -304.95 102.83 C-299.4 105.03 -295.68 105.51 -290.13 103.26 C-288.27 102.42 -286.41 101.56 -284.56 100.69 C-282.52 99.76 -280.47 98.83 -278.42 97.9 C-277.36 97.42 -276.31 96.94 -275.22 96.44 C-269.99 94.1 -264.68 91.93 -259.38 89.75 C-252.15 86.77 -245.02 83.68 -237.95 80.34 C-234.13 78.61 -230.25 77.06 -226.35 75.53 C-222.34 73.95 -218.37 72.32 -214.41 70.64 C-204.01 66.24 -193.63 62.03 -182.93 58.4 C-178.2 56.79 -173.56 55.05 -168.94 53.12 C-160.94 49.86 -152.77 47.21 -144.57 44.52 C-137.1 42.06 -129.69 39.47 -122.31 36.75 C-93.83 26.34 -64.73 17.24 -35.54 9.04 C-30.24 7.49 -24.99 5.8 -19.75 4.11 C-5.82 -0.36 -5.82 -0.36 0 0 Z " fill="#020202" transform="translate(938,489)"/>
<path d="M0 0 C3.65 1.26 5.2 3.29 7.31 6.44 C7.92 7.34 8.53 8.24 9.16 9.17 C11.49 12.75 13.79 16.36 16.07 19.97 C18.25 23.39 20.49 26.76 22.75 30.12 C26.26 35.36 29.71 40.63 33.12 45.94 C38.41 54.14 43.82 62.26 49.25 70.36 C50.54 72.28 51.82 74.21 53.1 76.14 C54.4 78.1 55.72 80.05 57.04 82 C57.68 82.96 58.32 83.92 58.98 84.91 C59.85 86.2 59.85 86.2 60.74 87.51 C62.15 90.29 62.38 91.93 62 95 C58.93 98.13 54.66 99.78 50.75 101.69 C50.05 102.03 49.35 102.38 48.62 102.74 C45.72 104.17 42.82 105.6 39.92 107.02 C24.74 114.37 24.74 114.37 10.36 123.12 C5.66 126.2 1.56 127 -4 126 C-6.78 124.91 -9.15 123.4 -11.62 121.75 C-13.1 120.83 -14.58 119.91 -16.06 119 C-16.85 118.51 -17.64 118.02 -18.45 117.52 C-23.08 114.76 -27.85 112.29 -32.62 109.81 C-33.6 109.3 -34.58 108.79 -35.59 108.27 C-42.37 104.77 -49.22 101.52 -56.23 98.5 C-59.06 96.97 -60.34 95.71 -62 93 C-52.27 75.81 -52.27 75.81 -49 71 C-48.34 71 -47.68 71 -47 71 C-46.78 70.36 -46.57 69.72 -46.34 69.05 C-44.47 64.81 -42 61.03 -39.5 57.12 C-38.96 56.28 -38.43 55.44 -37.87 54.57 C-34.22 48.86 -30.51 43.19 -26.72 37.57 C-24.06 33.61 -21.46 29.63 -18.89 25.61 C-14.86 19.32 -10.76 13.1 -6.44 7 C-5.81 6.11 -5.81 6.11 -5.17 5.2 C-2.25 1.12 -2.25 1.12 0 0 Z " fill="#020202" transform="translate(640,443)"/>
</svg>
